<svg width="100" height="88" viewBox="0 0 100 88" fill="none" xmlns="http://www.w3.org/2000/svg">
<path fill-rule="evenodd" clip-rule="evenodd" d="M94.4414 0.381633C97.7532 1.44295 100 4.52229 100 8V88H84V72H56L46.4 84.8C44.8892 86.8144 42.5181 88 40 88H8C4.99577 88 2.24479 86.3169 0.877102 83.642C-0.490581 80.9672 -0.244382 77.7515 1.51457 75.3161L44.354 16H4V-3.3027e-06H60C63.0042 -3.3027e-06 65.7552 1.68312 67.1229 4.35798C68.4906 7.03283 68.2444 10.2485 66.4854 12.6839L23.646 72H36L45.5442 59.2744L85.4901 3.35009C87.5115 0.520163 91.1296 -0.679685 94.4414 0.381633ZM67.5455 56H84V32.9637L67.5455 56Z" fill="black"/>
<mask id="mask0" mask-type="alpha" maskUnits="userSpaceOnUse" x="0" y="-1" width="100" height="89">
<path fill-rule="evenodd" clip-rule="evenodd" d="M94.4414 0.381633C97.7532 1.44295 100 4.52229 100 8V88H84V72H56L46.4 84.8C44.8892 86.8144 42.5181 88 40 88H8C4.99577 88 2.24479 86.3169 0.877102 83.642C-0.490581 80.9672 -0.244382 77.7515 1.51457 75.3161L44.354 16H4V-3.3027e-06H60C63.0042 -3.3027e-06 65.7552 1.68312 67.1229 4.35798C68.4906 7.03283 68.2444 10.2485 66.4854 12.6839L23.646 72H36L45.5442 59.2744L85.4901 3.35009C87.5115 0.520163 91.1296 -0.679685 94.4414 0.381633ZM67.5455 56H84V32.9637L67.5455 56Z" fill="black"/>
</mask>
<g mask="url(#mask0)">
<rect x="96.7145" y="-4" width="3.63919" height="119.573" transform="rotate(35.6637 96.7145 -4)" fill="#FDD377"/>
<rect x="105.386" y="-2.2524" width="3.63919" height="119.573" transform="rotate(35.6637 105.386 -2.2524)" fill="#FCB03A"/>
<rect x="114.057" y="-0.763489" width="3.63919" height="119.573" transform="rotate(35.6637 114.057 -0.763489)" fill="#F57F37"/>
<rect x="122.728" y="0.984093" width="3.63919" height="119.573" transform="rotate(35.6637 122.728 0.984093)" fill="#F27126"/>
<rect x="131.399" y="2.73169" width="3.63919" height="119.573" transform="rotate(35.6637 131.399 2.73169)" fill="#EF3726"/>
<rect x="140.715" y="2.73169" width="3.63919" height="119.573" transform="rotate(35.6637 140.715 2.73169)" fill="#EF3726"/>
<rect x="150.03" y="2.73169" width="3.63919" height="119.573" transform="rotate(35.6637 150.03 2.73169)" fill="#EF3726"/>
<rect x="159.345" y="2.73169" width="3.63919" height="119.573" transform="rotate(35.6637 159.345 2.73169)" fill="#EF3726"/>
</g>
</svg>
